<?xml version="1.0" encoding="UTF-8" standalone="no"?>
<!-- Created with Inkscape (http://www.inkscape.org/) -->

<svg
   width="506"
   height="125.20834"
   viewBox="0 0 506 125.20834"
   version="1.1"
   id="svg1"
   xml:space="preserve"
   sodipodi:docname="Message Box.svg"
   inkscape:version="1.3 (0e150ed6c4, 2023-07-21)"
   xmlns:inkscape="http://www.inkscape.org/namespaces/inkscape"
   xmlns:sodipodi="http://sodipodi.sourceforge.net/DTD/sodipodi-0.dtd"
   xmlns="http://www.w3.org/2000/svg"
   xmlns:svg="http://www.w3.org/2000/svg"><sodipodi:namedview
     id="namedview1"
     pagecolor="#505050"
     bordercolor="#ffffff"
     borderopacity="1"
     inkscape:showpageshadow="0"
     inkscape:pageopacity="0"
     inkscape:pagecheckerboard="1"
     inkscape:deskcolor="#d1d1d1"
     inkscape:document-units="px"
     showguides="true"
     inkscape:zoom="1.6035156"
     inkscape:cx="257.55907"
     inkscape:cy="318.36297"
     inkscape:window-width="1920"
     inkscape:window-height="1017"
     inkscape:window-x="-8"
     inkscape:window-y="-8"
     inkscape:window-maximized="1"
     inkscape:current-layer="layer1" /><defs
     id="defs1" /><g
     inkscape:label="Message 256"
     inkscape:groupmode="layer"
     id="layer1"
     transform="translate(-2.234144,-207.56256)"><path
       style="display:inline;fill:#b9bec7;fill-opacity:0.8;stroke:#d7e2fb;stroke-width:2;stroke-dasharray:none;stroke-opacity:1"
       d="M 192.73415,330.90711 C 136.65175,328.94078 63.611221,323.95326 25.234144,319.46951 18.359144,318.66627 12.207809,318.005 11.564511,318 8.171063,317.9737 3.234144,289.52152 3.234144,269.99093 c 0,-19.53059 4.936919,-47.98275 8.330367,-48.00907 0.643298,-0.005 6.794633,-0.66627 13.669633,-1.46951 136.345586,-15.92983 323.654416,-15.92983 460.000006,0 6.875,0.80324 13.02633,1.46451 13.66963,1.46951 3.39345,0.0263 8.33037,28.47848 8.33037,48.00907 0,19.53059 -4.93692,47.98275 -8.33037,48.00907 -0.6433,0.005 -6.79463,0.66627 -13.66963,1.46951 -81.03385,9.46752 -207.5689,14.41541 -292.5,11.4376 z"
       id="path8" /></g></svg>
